ISO-10303-21;
HEADER;
/* Generated by software containing ST-Developer
 * from STEP Tools, Inc. (www.steptools.com) 
 */

FILE_DESCRIPTION(
/* description */ (''),
/* implementation_level */ '2;1');

FILE_NAME(
/* name */ 'pin.step',
/* time_stamp */ '2026-08-18T13:53:28-04:00',
/* author */ (''),
/* organization */ (''),
/* preprocessor_version */ 'ST-DEVELOPER v20.1',
/* originating_system */ 'Autodesk Translation Framework v15.8.0.0',
/* authorisation */ '');

FILE_SCHEMA (('AUTOMOTIVE_DESIGN { 1 0 10303 214 3 1 1 }'));
ENDSEC;

DATA;
#10=MECHANICAL_DESIGN_GEOMETRIC_PRESENTATION_REPRESENTATION('',(#13),#158);
#11=SHAPE_REPRESENTATION_RELATIONSHIP('SRR','None',#165,#12);
#12=ADVANCED_BREP_SHAPE_REPRESENTATION('',(#14),#157);
#13=STYLED_ITEM('',(#174),#14);
#14=MANIFOLD_SOLID_BREP('Body1',#78);
#15=PLANE('',#100);
#16=PLANE('',#104);
#17=LINE('',#145,#18);
#18=VECTOR('',#119,5.);
#19=CYLINDRICAL_SURFACE('',#97,5.);
#20=FACE_OUTER_BOUND('',#25,.T.);
#21=FACE_OUTER_BOUND('',#26,.T.);
#22=FACE_OUTER_BOUND('',#27,.T.);
#23=FACE_OUTER_BOUND('',#28,.T.);
#24=FACE_OUTER_BOUND('',#29,.T.);
#25=EDGE_LOOP('',(#53,#54,#55,#56,#57));
#26=EDGE_LOOP('',(#58,#59,#60,#61,#62,#63));
#27=EDGE_LOOP('',(#64));
#28=EDGE_LOOP('',(#65,#66,#67,#68,#69));
#29=EDGE_LOOP('',(#70));
#30=CIRCLE('',#93,3.5);
#31=CIRCLE('',#94,1.5);
#32=CIRCLE('',#95,5.);
#33=CIRCLE('',#96,5.);
#34=CIRCLE('',#98,5.);
#35=CIRCLE('',#99,5.);
#36=CIRCLE('',#102,3.5);
#37=CIRCLE('',#103,1.5);
#38=VERTEX_POINT('',#136);
#39=VERTEX_POINT('',#138);
#40=VERTEX_POINT('',#140);
#41=VERTEX_POINT('',#144);
#42=VERTEX_POINT('',#146);
#43=VERTEX_POINT('',#151);
#44=EDGE_CURVE('',#38,#38,#30,.T.);
#45=EDGE_CURVE('',#38,#39,#31,.T.);
#46=EDGE_CURVE('',#39,#40,#32,.T.);
#47=EDGE_CURVE('',#40,#39,#33,.T.);
#48=EDGE_CURVE('',#40,#41,#17,.T.);
#49=EDGE_CURVE('',#42,#41,#34,.T.);
#50=EDGE_CURVE('',#41,#42,#35,.T.);
#51=EDGE_CURVE('',#43,#43,#36,.T.);
#52=EDGE_CURVE('',#43,#42,#37,.T.);
#53=ORIENTED_EDGE('',*,*,#44,.T.);
#54=ORIENTED_EDGE('',*,*,#45,.T.);
#55=ORIENTED_EDGE('',*,*,#46,.T.);
#56=ORIENTED_EDGE('',*,*,#47,.T.);
#57=ORIENTED_EDGE('',*,*,#45,.F.);
#58=ORIENTED_EDGE('',*,*,#47,.F.);
#59=ORIENTED_EDGE('',*,*,#48,.T.);
#60=ORIENTED_EDGE('',*,*,#49,.F.);
#61=ORIENTED_EDGE('',*,*,#50,.F.);
#62=ORIENTED_EDGE('',*,*,#48,.F.);
#63=ORIENTED_EDGE('',*,*,#46,.F.);
#64=ORIENTED_EDGE('',*,*,#44,.F.);
#65=ORIENTED_EDGE('',*,*,#51,.T.);
#66=ORIENTED_EDGE('',*,*,#52,.T.);
#67=ORIENTED_EDGE('',*,*,#49,.T.);
#68=ORIENTED_EDGE('',*,*,#50,.T.);
#69=ORIENTED_EDGE('',*,*,#52,.F.);
#70=ORIENTED_EDGE('',*,*,#51,.F.);
#71=TOROIDAL_SURFACE('',#92,3.5,1.5);
#72=TOROIDAL_SURFACE('',#101,3.5,1.5);
#73=ADVANCED_FACE('',(#20),#71,.T.);
#74=ADVANCED_FACE('',(#21),#19,.T.);
#75=ADVANCED_FACE('',(#22),#15,.T.);
#76=ADVANCED_FACE('',(#23),#72,.T.);
#77=ADVANCED_FACE('',(#24),#16,.T.);
#78=CLOSED_SHELL('',(#73,#74,#75,#76,#77));
#79=DERIVED_UNIT_ELEMENT(#81,1.);
#80=DERIVED_UNIT_ELEMENT(#160,-3.);
#81=(
MASS_UNIT()
NAMED_UNIT(*)
SI_UNIT(.KILO.,.GRAM.)
);
#82=DERIVED_UNIT((#79,#80));
#83=MEASURE_REPRESENTATION_ITEM('density measure',
POSITIVE_RATIO_MEASURE(7850.),#82);
#84=PROPERTY_DEFINITION_REPRESENTATION(#89,#86);
#85=PROPERTY_DEFINITION_REPRESENTATION(#90,#87);
#86=REPRESENTATION('material name',(#88),#157);
#87=REPRESENTATION('density',(#83),#157);
#88=DESCRIPTIVE_REPRESENTATION_ITEM('Steel','Steel');
#89=PROPERTY_DEFINITION('material property','material name',#167);
#90=PROPERTY_DEFINITION('material property','density of part',#167);
#91=AXIS2_PLACEMENT_3D('',#134,#105,#106);
#92=AXIS2_PLACEMENT_3D('',#135,#107,#108);
#93=AXIS2_PLACEMENT_3D('',#137,#109,#110);
#94=AXIS2_PLACEMENT_3D('',#139,#111,#112);
#95=AXIS2_PLACEMENT_3D('',#141,#113,#114);
#96=AXIS2_PLACEMENT_3D('',#142,#115,#116);
#97=AXIS2_PLACEMENT_3D('',#143,#117,#118);
#98=AXIS2_PLACEMENT_3D('',#147,#120,#121);
#99=AXIS2_PLACEMENT_3D('',#148,#122,#123);
#100=AXIS2_PLACEMENT_3D('',#149,#124,#125);
#101=AXIS2_PLACEMENT_3D('',#150,#126,#127);
#102=AXIS2_PLACEMENT_3D('',#152,#128,#129);
#103=AXIS2_PLACEMENT_3D('',#153,#130,#131);
#104=AXIS2_PLACEMENT_3D('',#154,#132,#133);
#105=DIRECTION('axis',(0.,0.,1.));
#106=DIRECTION('refdir',(1.,0.,0.));
#107=DIRECTION('center_axis',(0.,1.,2.22044604925031E-16));
#108=DIRECTION('ref_axis',(0.,0.,1.));
#109=DIRECTION('center_axis',(0.,-1.,-2.22044604925031E-16));
#110=DIRECTION('ref_axis',(-1.,1.4791141972894E-32,-6.66133814775096E-17));
#111=DIRECTION('center_axis',(-1.,0.,0.));
#112=DIRECTION('ref_axis',(0.,0.,-1.));
#113=DIRECTION('center_axis',(0.,1.,2.22044604925031E-16));
#114=DIRECTION('ref_axis',(-1.,0.,-6.66133814775096E-17));
#115=DIRECTION('center_axis',(0.,1.,2.22044604925031E-16));
#116=DIRECTION('ref_axis',(-1.,0.,-6.66133814775096E-17));
#117=DIRECTION('center_axis',(0.,1.,2.22044604925031E-16));
#118=DIRECTION('ref_axis',(1.,0.,0.));
#119=DIRECTION('',(0.,-1.,-2.22044604925031E-16));
#120=DIRECTION('center_axis',(0.,-1.,-2.22044604925031E-16));
#121=DIRECTION('ref_axis',(-1.,0.,6.66133814775096E-17));
#122=DIRECTION('center_axis',(0.,-1.,-2.22044604925031E-16));
#123=DIRECTION('ref_axis',(-1.,0.,6.66133814775096E-17));
#124=DIRECTION('center_axis',(0.,1.,2.22044604925031E-16));
#125=DIRECTION('ref_axis',(1.,0.,0.));
#126=DIRECTION('center_axis',(0.,-1.,-2.22044604925031E-16));
#127=DIRECTION('ref_axis',(0.,2.66453525910038E-16,-1.));
#128=DIRECTION('center_axis',(0.,1.,2.22044604925031E-16));
#129=DIRECTION('ref_axis',(-1.,-1.4791141972894E-32,6.66133814775096E-17));
#130=DIRECTION('center_axis',(-1.,0.,0.));
#131=DIRECTION('ref_axis',(0.,-2.22044604925031E-16,1.));
#132=DIRECTION('center_axis',(0.,-1.,-2.22044604925031E-16));
#133=DIRECTION('ref_axis',(-1.,0.,0.));
#134=CARTESIAN_POINT('',(0.,0.,0.));
#135=CARTESIAN_POINT('Origin',(50.,88.5,175.));
#136=CARTESIAN_POINT('',(50.,90.,171.5));
#137=CARTESIAN_POINT('Origin',(50.,90.,175.));
#138=CARTESIAN_POINT('',(50.,88.5,170.));
#139=CARTESIAN_POINT('Origin',(50.,88.5,171.5));
#140=CARTESIAN_POINT('',(45.,88.5,175.));
#141=CARTESIAN_POINT('Origin',(50.,88.5,175.));
#142=CARTESIAN_POINT('Origin',(50.,88.5,175.));
#143=CARTESIAN_POINT('Origin',(50.,45.,175.));
#144=CARTESIAN_POINT('',(45.,1.5,175.));
#145=CARTESIAN_POINT('',(45.,45.,175.));
#146=CARTESIAN_POINT('',(50.,1.5,180.));
#147=CARTESIAN_POINT('Origin',(50.,1.5,175.));
#148=CARTESIAN_POINT('Origin',(50.,1.5,175.));
#149=CARTESIAN_POINT('Origin',(50.,90.,175.));
#150=CARTESIAN_POINT('Origin',(50.,1.5,175.));
#151=CARTESIAN_POINT('',(50.,-8.04911692853237E-16,178.5));
#152=CARTESIAN_POINT('Origin',(50.,0.,175.));
#153=CARTESIAN_POINT('Origin',(50.,1.5,178.5));
#154=CARTESIAN_POINT('Origin',(50.,0.,175.));
#155=UNCERTAINTY_MEASURE_WITH_UNIT(LENGTH_MEASURE(0.01),#159,
'DISTANCE_ACCURACY_VALUE',
'Maximum model space distance between geometric entities at asserted c
onnectivities');
#156=UNCERTAINTY_MEASURE_WITH_UNIT(LENGTH_MEASURE(0.01),#159,
'DISTANCE_ACCURACY_VALUE',
'Maximum model space distance between geometric entities at asserted c
onnectivities');
#157=(
GEOMETRIC_REPRESENTATION_CONTEXT(3)
GLOBAL_UNCERTAINTY_ASSIGNED_CONTEXT((#155))
GLOBAL_UNIT_ASSIGNED_CONTEXT((#159,#161,#162))
REPRESENTATION_CONTEXT('','3D')
);
#158=(
GEOMETRIC_REPRESENTATION_CONTEXT(3)
GLOBAL_UNCERTAINTY_ASSIGNED_CONTEXT((#156))
GLOBAL_UNIT_ASSIGNED_CONTEXT((#159,#161,#162))
REPRESENTATION_CONTEXT('','3D')
);
#159=(
LENGTH_UNIT()
NAMED_UNIT(*)
SI_UNIT(.MILLI.,.METRE.)
);
#160=(
LENGTH_UNIT()
NAMED_UNIT(*)
SI_UNIT($,.METRE.)
);
#161=(
NAMED_UNIT(*)
PLANE_ANGLE_UNIT()
SI_UNIT($,.RADIAN.)
);
#162=(
NAMED_UNIT(*)
SI_UNIT($,.STERADIAN.)
SOLID_ANGLE_UNIT()
);
#163=SHAPE_DEFINITION_REPRESENTATION(#164,#165);
#164=PRODUCT_DEFINITION_SHAPE('',$,#167);
#165=SHAPE_REPRESENTATION('',(#91),#157);
#166=PRODUCT_DEFINITION_CONTEXT('part definition',#171,'design');
#167=PRODUCT_DEFINITION('Pin','Pin',#168,#166);
#168=PRODUCT_DEFINITION_FORMATION('',$,#173);
#169=PRODUCT_RELATED_PRODUCT_CATEGORY('Pin','Pin',(#173));
#170=APPLICATION_PROTOCOL_DEFINITION('international standard',
'automotive_design',2009,#171);
#171=APPLICATION_CONTEXT(
'Core Data for Automotive Mechanical Design Process');
#172=PRODUCT_CONTEXT('part definition',#171,'mechanical');
#173=PRODUCT('Pin','Pin',$,(#172));
#174=PRESENTATION_STYLE_ASSIGNMENT((#175));
#175=SURFACE_STYLE_USAGE(.BOTH.,#176);
#176=SURFACE_SIDE_STYLE('',(#177));
#177=SURFACE_STYLE_FILL_AREA(#178);
#178=FILL_AREA_STYLE('Steel - Satin',(#179));
#179=FILL_AREA_STYLE_COLOUR('Steel - Satin',#180);
#180=COLOUR_RGB('Steel - Satin',0.627450980392157,0.627450980392157,0.627450980392157);
ENDSEC;
END-ISO-10303-21;
