ISO-10303-21;
HEADER;
/* Generated by software containing ST-Developer
 * from STEP Tools, Inc. (www.steptools.com) 
 */

FILE_DESCRIPTION(
/* description */ (''),
/* implementation_level */ '2;1');

FILE_NAME(
/* name */ 'piston.step',
/* time_stamp */ '2026-08-18T13:52:32-04:00',
/* author */ (''),
/* organization */ (''),
/* preprocessor_version */ 'ST-DEVELOPER v20.1',
/* originating_system */ 'Autodesk Translation Framework v15.8.0.0',
/* authorisation */ '');

FILE_SCHEMA (('AUTOMOTIVE_DESIGN { 1 0 10303 214 3 1 1 }'));
ENDSEC;

DATA;
#10=MECHANICAL_DESIGN_GEOMETRIC_PRESENTATION_REPRESENTATION('',(#13),#809);
#11=SHAPE_REPRESENTATION_RELATIONSHIP('SRR','None',#816,#12);
#12=ADVANCED_BREP_SHAPE_REPRESENTATION('',(#14),#808);
#13=STYLED_ITEM('',(#825),#14);
#14=MANIFOLD_SOLID_BREP('Body1',#319);
#15=TOROIDAL_SURFACE('',#345,35.,5.);
#16=CIRCLE('',#337,40.);
#17=CIRCLE('',#338,40.);
#18=CIRCLE('',#340,40.);
#19=CIRCLE('',#341,40.);
#20=CIRCLE('',#343,35.0000005215406);
#21=CIRCLE('',#346,35.);
#22=CIRCLE('',#347,5.);
#23=CIRCLE('',#348,40.);
#24=CIRCLE('',#350,40.);
#25=CIRCLE('',#353,40.);
#26=CIRCLE('',#354,40.);
#27=CIRCLE('',#356,36.);
#28=CIRCLE('',#358,36.);
#29=CIRCLE('',#360,40.);
#30=CIRCLE('',#362,40.);
#31=CIRCLE('',#364,36.);
#32=CIRCLE('',#366,36.);
#33=CIRCLE('',#370,36.);
#34=CIRCLE('',#372,36.);
#35=PLANE('',#336);
#36=PLANE('',#344);
#37=PLANE('',#351);
#38=PLANE('',#355);
#39=PLANE('',#359);
#40=PLANE('',#363);
#41=PLANE('',#367);
#42=PLANE('',#368);
#43=PLANE('',#369);
#44=PLANE('',#373);
#45=FACE_BOUND('',#79,.T.);
#46=FACE_BOUND('',#84,.T.);
#47=FACE_BOUND('',#85,.T.);
#48=FACE_BOUND('',#87,.T.);
#49=FACE_BOUND('',#88,.T.);
#50=FACE_BOUND('',#95,.T.);
#51=FACE_BOUND('',#98,.T.);
#52=FACE_BOUND('',#101,.T.);
#53=FACE_BOUND('',#104,.T.);
#54=FACE_BOUND('',#107,.T.);
#55=FACE_BOUND('',#110,.T.);
#56=FACE_OUTER_BOUND('',#78,.T.);
#57=FACE_OUTER_BOUND('',#80,.T.);
#58=FACE_OUTER_BOUND('',#81,.T.);
#59=FACE_OUTER_BOUND('',#82,.T.);
#60=FACE_OUTER_BOUND('',#83,.T.);
#61=FACE_OUTER_BOUND('',#86,.T.);
#62=FACE_OUTER_BOUND('',#89,.T.);
#63=FACE_OUTER_BOUND('',#90,.T.);
#64=FACE_OUTER_BOUND('',#91,.T.);
#65=FACE_OUTER_BOUND('',#92,.T.);
#66=FACE_OUTER_BOUND('',#93,.T.);
#67=FACE_OUTER_BOUND('',#94,.T.);
#68=FACE_OUTER_BOUND('',#96,.T.);
#69=FACE_OUTER_BOUND('',#97,.T.);
#70=FACE_OUTER_BOUND('',#99,.T.);
#71=FACE_OUTER_BOUND('',#100,.T.);
#72=FACE_OUTER_BOUND('',#102,.T.);
#73=FACE_OUTER_BOUND('',#103,.T.);
#74=FACE_OUTER_BOUND('',#105,.T.);
#75=FACE_OUTER_BOUND('',#106,.T.);
#76=FACE_OUTER_BOUND('',#108,.T.);
#77=FACE_OUTER_BOUND('',#109,.T.);
#78=EDGE_LOOP('',(#208,#209,#210,#211));
#79=EDGE_LOOP('',(#212,#213));
#80=EDGE_LOOP('',(#214,#215,#216,#217));
#81=EDGE_LOOP('',(#218,#219,#220,#221));
#82=EDGE_LOOP('',(#222,#223,#224));
#83=EDGE_LOOP('',(#225,#226,#227,#228,#229,#230,#231,#232));
#84=EDGE_LOOP('',(#233));
#85=EDGE_LOOP('',(#234));
#86=EDGE_LOOP('',(#235,#236,#237,#238,#239));
#87=EDGE_LOOP('',(#240));
#88=EDGE_LOOP('',(#241));
#89=EDGE_LOOP('',(#242));
#90=EDGE_LOOP('',(#243,#244,#245,#246));
#91=EDGE_LOOP('',(#247,#248,#249,#250));
#92=EDGE_LOOP('',(#251));
#93=EDGE_LOOP('',(#252,#253,#254,#255));
#94=EDGE_LOOP('',(#256));
#95=EDGE_LOOP('',(#257));
#96=EDGE_LOOP('',(#258,#259,#260,#261));
#97=EDGE_LOOP('',(#262));
#98=EDGE_LOOP('',(#263));
#99=EDGE_LOOP('',(#264,#265,#266,#267));
#100=EDGE_LOOP('',(#268));
#101=EDGE_LOOP('',(#269));
#102=EDGE_LOOP('',(#270,#271,#272,#273));
#103=EDGE_LOOP('',(#274));
#104=EDGE_LOOP('',(#275));
#105=EDGE_LOOP('',(#276,#277));
#106=EDGE_LOOP('',(#278));
#107=EDGE_LOOP('',(#279));
#108=EDGE_LOOP('',(#280,#281,#282,#283));
#109=EDGE_LOOP('',(#284));
#110=EDGE_LOOP('',(#285));
#111=LINE('',#501,#123);
#112=LINE('',#529,#124);
#113=LINE('',#637,#125);
#114=LINE('',#709,#126);
#115=LINE('',#751,#127);
#116=LINE('',#755,#128);
#117=LINE('',#766,#129);
#118=LINE('',#773,#130);
#119=LINE('',#781,#131);
#120=LINE('',#788,#132);
#121=LINE('',#795,#133);
#122=LINE('',#804,#134);
#123=VECTOR('',#378,10.);
#124=VECTOR('',#379,10.);
#125=VECTOR('',#382,5.00000007450581);
#126=VECTOR('',#385,5.00000007450581);
#127=VECTOR('',#396,40.);
#128=VECTOR('',#401,35.0000005215406);
#129=VECTOR('',#416,40.);
#130=VECTOR('',#425,40.);
#131=VECTOR('',#436,36.);
#132=VECTOR('',#445,40.);
#133=VECTOR('',#454,36.);
#134=VECTOR('',#467,36.);
#135=B_SPLINE_CURVE_WITH_KNOTS('',3,(#474,#475,#476,#477,#478,#479,#480,
#481,#482,#483,#484,#485,#486,#487,#488,#489,#490,#491,#492,#493,#494,#495,
#496,#497,#498,#499),.UNSPECIFIED.,.F.,.F.,(4,2,2,2,2,2,2,2,2,2,2,2,4),
(1.87529146756247,2.33501089046222,3.11334785394962,3.88713042058761,4.6609129872256,
5.4346955538636,6.20847812050159,6.98226068713958,7.75604325377757,8.52982582041556,
9.30360838705356,10.081945350541,10.5416647734407),.UNSPECIFIED.);
#136=B_SPLINE_CURVE_WITH_KNOTS('',3,(#503,#504,#505,#506,#507,#508,#509,
#510,#511,#512,#513,#514,#515,#516,#517,#518,#519,#520,#521,#522,#523,#524,
#525,#526,#527,#528),.UNSPECIFIED.,.F.,.F.,(4,2,2,2,2,2,2,2,2,2,2,2,4),
(14.2922477085657,14.7519671314654,15.5303040949528,16.3040866615908,17.0778692282288,
17.8516517948668,18.6254343615048,19.3992169281428,20.1729994947807,20.9467820614187,
21.7205646280567,22.4989015915441,22.9586210144439),.UNSPECIFIED.);
#137=B_SPLINE_CURVE_WITH_KNOTS('',3,(#532,#533,#534,#535,#536,#537,#538,
#539,#540,#541,#542,#543,#544,#545,#546,#547,#548,#549,#550,#551,#552,#553,
#554,#555,#556,#557,#558,#559,#560,#561,#562,#563,#564,#565),
 .UNSPECIFIED.,.F.,.F.,(4,2,2,2,2,2,2,2,2,2,2,2,2,2,2,2,4),(0.,0.674664029123939,
1.34932805824788,2.02399208737182,2.69865611649576,3.3712209466611,4.04378577682644,
4.71635060699178,5.38891543715712,6.06148026732246,6.7340450974878,7.40660992765314,
8.07917475781848,8.75383878694242,9.42850281606636,10.1031668451903,10.7778308743142),
 .UNSPECIFIED.);
#138=B_SPLINE_CURVE_WITH_KNOTS('',3,(#566,#567,#568,#569,#570,#571,#572,
#573,#574,#575,#576,#577,#578,#579,#580,#581,#582,#583,#584,#585,#586,#587,
#588,#589,#590,#591,#592,#593,#594,#595,#596,#597,#598,#599),
 .UNSPECIFIED.,.F.,.F.,(4,2,2,2,2,2,2,2,2,2,2,2,2,2,2,2,4),(10.7778308743142,
11.4524949034382,12.1271589325621,12.8018229616861,13.47648699081,14.1490518209753,
14.8216166511407,15.494181481306,16.1667463114714,16.8393111416367,17.511875971802,
18.1844408019674,18.8570056321327,19.5316696612567,20.2063336903806,20.8809977195045,
21.5556617486285),.UNSPECIFIED.);
#139=B_SPLINE_CURVE_WITH_KNOTS('',3,(#602,#603,#604,#605,#606,#607,#608,
#609,#610,#611,#612,#613,#614,#615,#616,#617,#618,#619,#620,#621,#622,#623,
#624,#625,#626,#627,#628,#629,#630,#631,#632,#633,#634,#635),
 .UNSPECIFIED.,.T.,.F.,(4,2,2,2,2,2,2,2,2,2,2,2,2,2,2,2,4),(0.,0.188556031743761,
0.377112063487522,0.565666520017912,0.754220976548302,0.942775433078692,
1.13132988960908,1.31988592135284,1.5084419530966,1.69699798484036,1.88555401658412,
2.07410847311451,2.2626629296449,2.45121738617529,2.63977184270568,2.82832787444945,
3.01688390619321),.UNSPECIFIED.);
#140=B_SPLINE_CURVE_WITH_KNOTS('',3,(#638,#639,#640,#641,#642,#643,#644,
#645,#646,#647,#648,#649,#650,#651,#652,#653,#654,#655,#656,#657,#658,#659,
#660,#661,#662,#663,#664,#665,#666,#667,#668,#669,#670,#671),
 .UNSPECIFIED.,.T.,.F.,(4,2,2,2,2,2,2,2,2,2,2,2,2,2,2,2,4),(0.,0.188622105592546,
0.377244211185093,0.565863616411045,0.754483021636996,0.943102426862948,
1.1317218320889,1.32034393768145,1.50896604327399,1.69758814886654,1.88621025445909,
2.07482965968504,2.26344906491099,2.45206847013694,2.64068787536289,2.82930998095544,
3.01793208654798),.UNSPECIFIED.);
#141=B_SPLINE_CURVE_WITH_KNOTS('',3,(#674,#675,#676,#677,#678,#679,#680,
#681,#682,#683,#684,#685,#686,#687,#688,#689,#690,#691,#692,#693,#694,#695,
#696,#697,#698,#699,#700,#701,#702,#703,#704,#705,#706,#707),
 .UNSPECIFIED.,.T.,.F.,(4,2,2,2,2,2,2,2,2,2,2,2,2,2,2,2,4),(0.,0.188622105592546,
0.377244211185093,0.565863616411045,0.754483021636996,0.943102426862948,
1.1317218320889,1.32034393768145,1.50896604327399,1.69758814886654,1.88621025445909,
2.07482965968504,2.26344906491099,2.45206847013694,2.64068787536289,2.82930998095544,
3.01793208654798),.UNSPECIFIED.);
#142=B_SPLINE_CURVE_WITH_KNOTS('',3,(#710,#711,#712,#713,#714,#715,#716,
#717,#718,#719,#720,#721,#722,#723,#724,#725,#726,#727,#728,#729,#730,#731,
#732,#733,#734,#735,#736,#737,#738,#739,#740,#741,#742,#743),
 .UNSPECIFIED.,.T.,.F.,(4,2,2,2,2,2,2,2,2,2,2,2,2,2,2,2,4),(0.,0.188556031743761,
0.377112063487522,0.565666520017912,0.754220976548302,0.942775433078692,
1.13132988960908,1.31988592135284,1.5084419530966,1.69699798484036,1.88555401658413,
2.07410847311452,2.26266292964491,2.4512173861753,2.63977184270569,2.82832787444945,
3.01688390619321),.UNSPECIFIED.);
#143=VERTEX_POINT('',#472);
#144=VERTEX_POINT('',#473);
#145=VERTEX_POINT('',#500);
#146=VERTEX_POINT('',#502);
#147=VERTEX_POINT('',#530);
#148=VERTEX_POINT('',#531);
#149=VERTEX_POINT('',#601);
#150=VERTEX_POINT('',#636);
#151=VERTEX_POINT('',#673);
#152=VERTEX_POINT('',#708);
#153=VERTEX_POINT('',#745);
#154=VERTEX_POINT('',#749);
#155=VERTEX_POINT('',#754);
#156=VERTEX_POINT('',#759);
#157=VERTEX_POINT('',#761);
#158=VERTEX_POINT('',#765);
#159=VERTEX_POINT('',#770);
#160=VERTEX_POINT('',#772);
#161=VERTEX_POINT('',#776);
#162=VERTEX_POINT('',#779);
#163=VERTEX_POINT('',#783);
#164=VERTEX_POINT('',#786);
#165=VERTEX_POINT('',#790);
#166=VERTEX_POINT('',#793);
#167=VERTEX_POINT('',#799);
#168=VERTEX_POINT('',#802);
#169=EDGE_CURVE('',#143,#144,#135,.T.);
#170=EDGE_CURVE('',#145,#143,#111,.T.);
#171=EDGE_CURVE('',#146,#145,#136,.T.);
#172=EDGE_CURVE('',#144,#146,#112,.T.);
#173=EDGE_CURVE('',#147,#148,#137,.T.);
#174=EDGE_CURVE('',#148,#147,#138,.T.);
#175=EDGE_CURVE('',#149,#149,#139,.T.);
#176=EDGE_CURVE('',#149,#150,#113,.T.);
#177=EDGE_CURVE('',#150,#150,#140,.T.);
#178=EDGE_CURVE('',#151,#151,#141,.T.);
#179=EDGE_CURVE('',#151,#152,#114,.T.);
#180=EDGE_CURVE('',#152,#152,#142,.T.);
#181=EDGE_CURVE('',#153,#146,#16,.T.);
#182=EDGE_CURVE('',#144,#153,#17,.T.);
#183=EDGE_CURVE('',#154,#154,#18,.T.);
#184=EDGE_CURVE('',#154,#153,#115,.T.);
#185=EDGE_CURVE('',#145,#143,#19,.T.);
#186=EDGE_CURVE('',#148,#155,#116,.T.);
#187=EDGE_CURVE('',#155,#155,#20,.T.);
#188=EDGE_CURVE('',#156,#156,#21,.T.);
#189=EDGE_CURVE('',#156,#157,#22,.T.);
#190=EDGE_CURVE('',#157,#157,#23,.T.);
#191=EDGE_CURVE('',#157,#158,#117,.T.);
#192=EDGE_CURVE('',#158,#158,#24,.T.);
#193=EDGE_CURVE('',#159,#159,#25,.T.);
#194=EDGE_CURVE('',#159,#160,#118,.T.);
#195=EDGE_CURVE('',#160,#160,#26,.T.);
#196=EDGE_CURVE('',#161,#161,#27,.T.);
#197=EDGE_CURVE('',#162,#162,#28,.T.);
#198=EDGE_CURVE('',#162,#161,#119,.T.);
#199=EDGE_CURVE('',#163,#163,#29,.T.);
#200=EDGE_CURVE('',#164,#164,#30,.T.);
#201=EDGE_CURVE('',#164,#163,#120,.T.);
#202=EDGE_CURVE('',#165,#165,#31,.T.);
#203=EDGE_CURVE('',#166,#166,#32,.T.);
#204=EDGE_CURVE('',#166,#165,#121,.T.);
#205=EDGE_CURVE('',#167,#167,#33,.T.);
#206=EDGE_CURVE('',#168,#168,#34,.T.);
#207=EDGE_CURVE('',#168,#167,#122,.T.);
#208=ORIENTED_EDGE('',*,*,#169,.F.);
#209=ORIENTED_EDGE('',*,*,#170,.F.);
#210=ORIENTED_EDGE('',*,*,#171,.F.);
#211=ORIENTED_EDGE('',*,*,#172,.F.);
#212=ORIENTED_EDGE('',*,*,#173,.F.);
#213=ORIENTED_EDGE('',*,*,#174,.F.);
#214=ORIENTED_EDGE('',*,*,#175,.F.);
#215=ORIENTED_EDGE('',*,*,#176,.T.);
#216=ORIENTED_EDGE('',*,*,#177,.F.);
#217=ORIENTED_EDGE('',*,*,#176,.F.);
#218=ORIENTED_EDGE('',*,*,#178,.F.);
#219=ORIENTED_EDGE('',*,*,#179,.T.);
#220=ORIENTED_EDGE('',*,*,#180,.F.);
#221=ORIENTED_EDGE('',*,*,#179,.F.);
#222=ORIENTED_EDGE('',*,*,#172,.T.);
#223=ORIENTED_EDGE('',*,*,#181,.F.);
#224=ORIENTED_EDGE('',*,*,#182,.F.);
#225=ORIENTED_EDGE('',*,*,#183,.F.);
#226=ORIENTED_EDGE('',*,*,#184,.T.);
#227=ORIENTED_EDGE('',*,*,#181,.T.);
#228=ORIENTED_EDGE('',*,*,#171,.T.);
#229=ORIENTED_EDGE('',*,*,#185,.T.);
#230=ORIENTED_EDGE('',*,*,#169,.T.);
#231=ORIENTED_EDGE('',*,*,#182,.T.);
#232=ORIENTED_EDGE('',*,*,#184,.F.);
#233=ORIENTED_EDGE('',*,*,#175,.T.);
#234=ORIENTED_EDGE('',*,*,#180,.T.);
#235=ORIENTED_EDGE('',*,*,#173,.T.);
#236=ORIENTED_EDGE('',*,*,#186,.T.);
#237=ORIENTED_EDGE('',*,*,#187,.T.);
#238=ORIENTED_EDGE('',*,*,#186,.F.);
#239=ORIENTED_EDGE('',*,*,#174,.T.);
#240=ORIENTED_EDGE('',*,*,#178,.T.);
#241=ORIENTED_EDGE('',*,*,#177,.T.);
#242=ORIENTED_EDGE('',*,*,#187,.F.);
#243=ORIENTED_EDGE('',*,*,#188,.T.);
#244=ORIENTED_EDGE('',*,*,#189,.T.);
#245=ORIENTED_EDGE('',*,*,#190,.T.);
#246=ORIENTED_EDGE('',*,*,#189,.F.);
#247=ORIENTED_EDGE('',*,*,#190,.F.);
#248=ORIENTED_EDGE('',*,*,#191,.T.);
#249=ORIENTED_EDGE('',*,*,#192,.T.);
#250=ORIENTED_EDGE('',*,*,#191,.F.);
#251=ORIENTED_EDGE('',*,*,#188,.F.);
#252=ORIENTED_EDGE('',*,*,#193,.F.);
#253=ORIENTED_EDGE('',*,*,#194,.T.);
#254=ORIENTED_EDGE('',*,*,#195,.T.);
#255=ORIENTED_EDGE('',*,*,#194,.F.);
#256=ORIENTED_EDGE('',*,*,#193,.T.);
#257=ORIENTED_EDGE('',*,*,#196,.F.);
#258=ORIENTED_EDGE('',*,*,#197,.F.);
#259=ORIENTED_EDGE('',*,*,#198,.T.);
#260=ORIENTED_EDGE('',*,*,#196,.T.);
#261=ORIENTED_EDGE('',*,*,#198,.F.);
#262=ORIENTED_EDGE('',*,*,#199,.F.);
#263=ORIENTED_EDGE('',*,*,#197,.T.);
#264=ORIENTED_EDGE('',*,*,#200,.F.);
#265=ORIENTED_EDGE('',*,*,#201,.T.);
#266=ORIENTED_EDGE('',*,*,#199,.T.);
#267=ORIENTED_EDGE('',*,*,#201,.F.);
#268=ORIENTED_EDGE('',*,*,#200,.T.);
#269=ORIENTED_EDGE('',*,*,#202,.F.);
#270=ORIENTED_EDGE('',*,*,#203,.F.);
#271=ORIENTED_EDGE('',*,*,#204,.T.);
#272=ORIENTED_EDGE('',*,*,#202,.T.);
#273=ORIENTED_EDGE('',*,*,#204,.F.);
#274=ORIENTED_EDGE('',*,*,#192,.F.);
#275=ORIENTED_EDGE('',*,*,#203,.T.);
#276=ORIENTED_EDGE('',*,*,#170,.T.);
#277=ORIENTED_EDGE('',*,*,#185,.F.);
#278=ORIENTED_EDGE('',*,*,#183,.T.);
#279=ORIENTED_EDGE('',*,*,#205,.F.);
#280=ORIENTED_EDGE('',*,*,#206,.F.);
#281=ORIENTED_EDGE('',*,*,#207,.T.);
#282=ORIENTED_EDGE('',*,*,#205,.T.);
#283=ORIENTED_EDGE('',*,*,#207,.F.);
#284=ORIENTED_EDGE('',*,*,#195,.F.);
#285=ORIENTED_EDGE('',*,*,#206,.T.);
#286=CYLINDRICAL_SURFACE('',#333,68.0125);
#287=CYLINDRICAL_SURFACE('',#334,5.00000007450581);
#288=CYLINDRICAL_SURFACE('',#335,5.00000007450581);
#289=CYLINDRICAL_SURFACE('',#339,40.);
#290=CYLINDRICAL_SURFACE('',#342,35.0000005215406);
#291=CYLINDRICAL_SURFACE('',#349,40.);
#292=CYLINDRICAL_SURFACE('',#352,40.);
#293=CYLINDRICAL_SURFACE('',#357,36.);
#294=CYLINDRICAL_SURFACE('',#361,40.);
#295=CYLINDRICAL_SURFACE('',#365,36.);
#296=CYLINDRICAL_SURFACE('',#371,36.);
#297=ADVANCED_FACE('',(#56,#45),#286,.F.);
#298=ADVANCED_FACE('',(#57),#287,.F.);
#299=ADVANCED_FACE('',(#58),#288,.F.);
#300=ADVANCED_FACE('',(#59),#35,.T.);
#301=ADVANCED_FACE('',(#60,#46,#47),#289,.T.);
#302=ADVANCED_FACE('',(#61,#48,#49),#290,.F.);
#303=ADVANCED_FACE('',(#62),#36,.T.);
#304=ADVANCED_FACE('',(#63),#15,.T.);
#305=ADVANCED_FACE('',(#64),#291,.T.);
#306=ADVANCED_FACE('',(#65),#37,.T.);
#307=ADVANCED_FACE('',(#66),#292,.T.);
#308=ADVANCED_FACE('',(#67,#50),#38,.T.);
#309=ADVANCED_FACE('',(#68),#293,.T.);
#310=ADVANCED_FACE('',(#69,#51),#39,.T.);
#311=ADVANCED_FACE('',(#70),#294,.T.);
#312=ADVANCED_FACE('',(#71,#52),#40,.T.);
#313=ADVANCED_FACE('',(#72),#295,.T.);
#314=ADVANCED_FACE('',(#73,#53),#41,.T.);
#315=ADVANCED_FACE('',(#74),#42,.T.);
#316=ADVANCED_FACE('',(#75,#54),#43,.T.);
#317=ADVANCED_FACE('',(#76),#296,.T.);
#318=ADVANCED_FACE('',(#77,#55),#44,.T.);
#319=CLOSED_SHELL('',(#297,#298,#299,#300,#301,#302,#303,#304,#305,#306,
#307,#308,#309,#310,#311,#312,#313,#314,#315,#316,#317,#318));
#320=DERIVED_UNIT_ELEMENT(#322,1.);
#321=DERIVED_UNIT_ELEMENT(#811,-3.);
#322=(
MASS_UNIT()
NAMED_UNIT(*)
SI_UNIT(.KILO.,.GRAM.)
);
#323=DERIVED_UNIT((#320,#321));
#324=MEASURE_REPRESENTATION_ITEM('density measure',
POSITIVE_RATIO_MEASURE(7850.),#323);
#325=PROPERTY_DEFINITION_REPRESENTATION(#330,#327);
#326=PROPERTY_DEFINITION_REPRESENTATION(#331,#328);
#327=REPRESENTATION('material name',(#329),#808);
#328=REPRESENTATION('density',(#324),#808);
#329=DESCRIPTIVE_REPRESENTATION_ITEM('Steel','Steel');
#330=PROPERTY_DEFINITION('material property','material name',#818);
#331=PROPERTY_DEFINITION('material property','density of part',#818);
#332=AXIS2_PLACEMENT_3D('',#470,#374,#375);
#333=AXIS2_PLACEMENT_3D('',#471,#376,#377);
#334=AXIS2_PLACEMENT_3D('',#600,#380,#381);
#335=AXIS2_PLACEMENT_3D('',#672,#383,#384);
#336=AXIS2_PLACEMENT_3D('',#744,#386,#387);
#337=AXIS2_PLACEMENT_3D('',#746,#388,#389);
#338=AXIS2_PLACEMENT_3D('',#747,#390,#391);
#339=AXIS2_PLACEMENT_3D('',#748,#392,#393);
#340=AXIS2_PLACEMENT_3D('',#750,#394,#395);
#341=AXIS2_PLACEMENT_3D('',#752,#397,#398);
#342=AXIS2_PLACEMENT_3D('',#753,#399,#400);
#343=AXIS2_PLACEMENT_3D('',#756,#402,#403);
#344=AXIS2_PLACEMENT_3D('',#757,#404,#405);
#345=AXIS2_PLACEMENT_3D('',#758,#406,#407);
#346=AXIS2_PLACEMENT_3D('',#760,#408,#409);
#347=AXIS2_PLACEMENT_3D('',#762,#410,#411);
#348=AXIS2_PLACEMENT_3D('',#763,#412,#413);
#349=AXIS2_PLACEMENT_3D('',#764,#414,#415);
#350=AXIS2_PLACEMENT_3D('',#767,#417,#418);
#351=AXIS2_PLACEMENT_3D('',#768,#419,#420);
#352=AXIS2_PLACEMENT_3D('',#769,#421,#422);
#353=AXIS2_PLACEMENT_3D('',#771,#423,#424);
#354=AXIS2_PLACEMENT_3D('',#774,#426,#427);
#355=AXIS2_PLACEMENT_3D('',#775,#428,#429);
#356=AXIS2_PLACEMENT_3D('',#777,#430,#431);
#357=AXIS2_PLACEMENT_3D('',#778,#432,#433);
#358=AXIS2_PLACEMENT_3D('',#780,#434,#435);
#359=AXIS2_PLACEMENT_3D('',#782,#437,#438);
#360=AXIS2_PLACEMENT_3D('',#784,#439,#440);
#361=AXIS2_PLACEMENT_3D('',#785,#441,#442);
#362=AXIS2_PLACEMENT_3D('',#787,#443,#444);
#363=AXIS2_PLACEMENT_3D('',#789,#446,#447);
#364=AXIS2_PLACEMENT_3D('',#791,#448,#449);
#365=AXIS2_PLACEMENT_3D('',#792,#450,#451);
#366=AXIS2_PLACEMENT_3D('',#794,#452,#453);
#367=AXIS2_PLACEMENT_3D('',#796,#455,#456);
#368=AXIS2_PLACEMENT_3D('',#797,#457,#458);
#369=AXIS2_PLACEMENT_3D('',#798,#459,#460);
#370=AXIS2_PLACEMENT_3D('',#800,#461,#462);
#371=AXIS2_PLACEMENT_3D('',#801,#463,#464);
#372=AXIS2_PLACEMENT_3D('',#803,#465,#466);
#373=AXIS2_PLACEMENT_3D('',#805,#468,#469);
#374=DIRECTION('axis',(0.,0.,1.));
#375=DIRECTION('refdir',(1.,0.,0.));
#376=DIRECTION('center_axis',(0.,1.,0.));
#377=DIRECTION('ref_axis',(-0.521962874471604,0.,0.852968204374196));
#378=DIRECTION('',(0.,1.,0.));
#379=DIRECTION('',(0.,-1.,0.));
#380=DIRECTION('center_axis',(0.,1.,0.));
#381=DIRECTION('ref_axis',(1.,0.,0.));
#382=DIRECTION('',(0.,1.,0.));
#383=DIRECTION('center_axis',(0.,1.,0.));
#384=DIRECTION('ref_axis',(1.,0.,0.));
#385=DIRECTION('',(0.,1.,0.));
#386=DIRECTION('center_axis',(4.48216423421029E-33,0.,-1.));
#387=DIRECTION('ref_axis',(-1.,0.,-4.48216423421029E-33));
#388=DIRECTION('center_axis',(-4.48216423421029E-33,0.,1.));
#389=DIRECTION('ref_axis',(1.,0.,4.48216423421029E-33));
#390=DIRECTION('center_axis',(-4.48216423421029E-33,0.,1.));
#391=DIRECTION('ref_axis',(1.,0.,4.48216423421029E-33));
#392=DIRECTION('center_axis',(-4.48216423421029E-33,0.,1.));
#393=DIRECTION('ref_axis',(1.,0.,0.));
#394=DIRECTION('center_axis',(-4.48216423421029E-33,0.,1.));
#395=DIRECTION('ref_axis',(1.,0.,4.48216423421029E-33));
#396=DIRECTION('',(4.48216423421029E-33,0.,-1.));
#397=DIRECTION('center_axis',(-4.48216423421029E-33,0.,1.));
#398=DIRECTION('ref_axis',(1.,0.,4.48216423421029E-33));
#399=DIRECTION('center_axis',(0.,0.,1.));
#400=DIRECTION('ref_axis',(1.,0.,0.));
#401=DIRECTION('',(0.,0.,1.));
#402=DIRECTION('center_axis',(0.,0.,1.));
#403=DIRECTION('ref_axis',(1.,0.,0.));
#404=DIRECTION('center_axis',(0.,0.,-1.));
#405=DIRECTION('ref_axis',(1.,0.,0.));
#406=DIRECTION('center_axis',(-4.48216423421029E-33,0.,1.));
#407=DIRECTION('ref_axis',(1.,0.,0.));
#408=DIRECTION('center_axis',(4.48216423421029E-33,0.,-1.));
#409=DIRECTION('ref_axis',(-1.,1.22464679914735E-16,-4.48216423421029E-33));
#410=DIRECTION('center_axis',(1.22464679914735E-16,-1.,5.48906808267838E-49));
#411=DIRECTION('ref_axis',(-1.,-1.22464679914735E-16,0.));
#412=DIRECTION('center_axis',(-4.48216423421029E-33,0.,1.));
#413=DIRECTION('ref_axis',(-1.,1.22464679914735E-16,0.));
#414=DIRECTION('center_axis',(-4.48216423421029E-33,0.,1.));
#415=DIRECTION('ref_axis',(1.,0.,0.));
#416=DIRECTION('',(4.48216423421029E-33,0.,-1.));
#417=DIRECTION('center_axis',(-4.48216423421029E-33,0.,1.));
#418=DIRECTION('ref_axis',(1.,0.,4.48216423421029E-33));
#419=DIRECTION('center_axis',(-4.48216423421029E-33,0.,1.));
#420=DIRECTION('ref_axis',(1.,0.,4.48216423421029E-33));
#421=DIRECTION('center_axis',(-4.48216423421029E-33,0.,1.));
#422=DIRECTION('ref_axis',(1.,0.,0.));
#423=DIRECTION('center_axis',(-4.48216423421029E-33,0.,1.));
#424=DIRECTION('ref_axis',(1.,0.,4.48216423421029E-33));
#425=DIRECTION('',(4.48216423421029E-33,0.,-1.));
#426=DIRECTION('center_axis',(-4.48216423421029E-33,0.,1.));
#427=DIRECTION('ref_axis',(1.,0.,4.48216423421029E-33));
#428=DIRECTION('center_axis',(-4.48216423421029E-33,0.,1.));
#429=DIRECTION('ref_axis',(1.,0.,4.48216423421029E-33));
#430=DIRECTION('center_axis',(-4.48216423421029E-33,0.,1.));
#431=DIRECTION('ref_axis',(1.,0.,4.48216423421029E-33));
#432=DIRECTION('center_axis',(-4.48216423421029E-33,0.,1.));
#433=DIRECTION('ref_axis',(1.,0.,0.));
#434=DIRECTION('center_axis',(-4.48216423421029E-33,0.,1.));
#435=DIRECTION('ref_axis',(1.,0.,4.48216423421029E-33));
#436=DIRECTION('',(4.48216423421029E-33,0.,-1.));
#437=DIRECTION('center_axis',(4.48216423421029E-33,0.,-1.));
#438=DIRECTION('ref_axis',(-1.,0.,-4.48216423421029E-33));
#439=DIRECTION('center_axis',(-4.48216423421029E-33,0.,1.));
#440=DIRECTION('ref_axis',(1.,0.,4.48216423421029E-33));
#441=DIRECTION('center_axis',(-4.48216423421029E-33,0.,1.));
#442=DIRECTION('ref_axis',(1.,0.,0.));
#443=DIRECTION('center_axis',(-4.48216423421029E-33,0.,1.));
#444=DIRECTION('ref_axis',(1.,0.,4.48216423421029E-33));
#445=DIRECTION('',(4.48216423421029E-33,0.,-1.));
#446=DIRECTION('center_axis',(-4.48216423421029E-33,0.,1.));
#447=DIRECTION('ref_axis',(1.,0.,4.48216423421029E-33));
#448=DIRECTION('center_axis',(-4.48216423421029E-33,0.,1.));
#449=DIRECTION('ref_axis',(1.,0.,4.48216423421029E-33));
#450=DIRECTION('center_axis',(-4.48216423421029E-33,0.,1.));
#451=DIRECTION('ref_axis',(1.,0.,0.));
#452=DIRECTION('center_axis',(-4.48216423421029E-33,0.,1.));
#453=DIRECTION('ref_axis',(1.,0.,4.48216423421029E-33));
#454=DIRECTION('',(4.48216423421029E-33,0.,-1.));
#455=DIRECTION('center_axis',(4.48216423421029E-33,0.,-1.));
#456=DIRECTION('ref_axis',(-1.,0.,-4.48216423421029E-33));
#457=DIRECTION('center_axis',(4.48216423421029E-33,0.,-1.));
#458=DIRECTION('ref_axis',(-1.,0.,-4.48216423421029E-33));
#459=DIRECTION('center_axis',(-4.48216423421029E-33,0.,1.));
#460=DIRECTION('ref_axis',(1.,0.,4.48216423421029E-33));
#461=DIRECTION('center_axis',(-4.48216423421029E-33,0.,1.));
#462=DIRECTION('ref_axis',(1.,0.,4.48216423421029E-33));
#463=DIRECTION('center_axis',(-4.48216423421029E-33,0.,1.));
#464=DIRECTION('ref_axis',(1.,0.,0.));
#465=DIRECTION('center_axis',(-4.48216423421029E-33,0.,1.));
#466=DIRECTION('ref_axis',(1.,0.,4.48216423421029E-33));
#467=DIRECTION('',(4.48216423421029E-33,0.,-1.));
#468=DIRECTION('center_axis',(4.48216423421029E-33,0.,-1.));
#469=DIRECTION('ref_axis',(-1.,0.,-4.48216423421029E-33));
#470=CARTESIAN_POINT('',(0.,0.,0.));
#471=CARTESIAN_POINT('Origin',(1.11022302462516E-15,0.,-58.0125));
#472=CARTESIAN_POINT('',(35.5,18.4323085911667,0.));
#473=CARTESIAN_POINT('',(-35.5,18.4323085911668,8.88178419700125E-15));
#474=CARTESIAN_POINT('Ctrl Pts',(35.5,18.4323085911667,-8.18789480661053E-15));
#475=CARTESIAN_POINT('Ctrl Pts',(34.7818703840603,19.81540182877,0.439450142053165));
#476=CARTESIAN_POINT('Ctrl Pts',(33.9869078783524,21.1480967349544,0.907435378336738));
#477=CARTESIAN_POINT('Ctrl Pts',(31.6721908884074,24.5685575092024,2.19836922563114));
#478=CARTESIAN_POINT('Ctrl Pts',(30.0298422901001,26.5387002048237,3.04151636895392));
#479=CARTESIAN_POINT('Ctrl Pts',(26.5489143198278,30.019628175096,4.63330194788499));
#480=CARTESIAN_POINT('Ctrl Pts',(24.5840270600931,31.660322956161,5.44234931521401));
#481=CARTESIAN_POINT('Ctrl Pts',(20.2818075344126,34.5745386058477,6.94549081823392));
#482=CARTESIAN_POINT('Ctrl Pts',(17.9442684983147,35.8482706244572,7.63858359796795));
#483=CARTESIAN_POINT('Ctrl Pts',(13.0324467118689,37.9110888818946,8.78732708137463));
#484=CARTESIAN_POINT('Ctrl Pts',(10.45320426351,38.7018408841425,9.24336802818371));
#485=CARTESIAN_POINT('Ctrl Pts',(5.22667879707988,39.7464941345577,9.84988348583725));
#486=CARTESIAN_POINT('Ctrl Pts',(2.57927522212664,40.,10.));
#487=CARTESIAN_POINT('Ctrl Pts',(-2.57927522212664,40.,10.));
#488=CARTESIAN_POINT('Ctrl Pts',(-5.22667879707988,39.7464941345577,9.84988348583725));
#489=CARTESIAN_POINT('Ctrl Pts',(-10.45320426351,38.7018408841425,9.24336802818371));
#490=CARTESIAN_POINT('Ctrl Pts',(-13.0324467118689,37.9110888818946,8.78732708137463));
#491=CARTESIAN_POINT('Ctrl Pts',(-17.9442684983147,35.8482706244572,7.63858359796795));
#492=CARTESIAN_POINT('Ctrl Pts',(-20.2818075344126,34.5745386058477,6.94549081823393));
#493=CARTESIAN_POINT('Ctrl Pts',(-24.5840270600931,31.660322956161,5.44234931521402));
#494=CARTESIAN_POINT('Ctrl Pts',(-26.5489143198278,30.019628175096,4.63330194788499));
#495=CARTESIAN_POINT('Ctrl Pts',(-30.0298422901001,26.5387002048237,3.04151636895392));
#496=CARTESIAN_POINT('Ctrl Pts',(-31.6721908884074,24.5685575092024,2.19836922563114));
#497=CARTESIAN_POINT('Ctrl Pts',(-33.9869078783524,21.1480967349544,0.907435378336744));
#498=CARTESIAN_POINT('Ctrl Pts',(-34.7818703840603,19.8154018287701,0.439450142053173));
#499=CARTESIAN_POINT('Ctrl Pts',(-35.5,18.4323085911668,2.77555756156289E-15));
#500=CARTESIAN_POINT('',(35.5,-18.4323085911667,0.));
#501=CARTESIAN_POINT('',(35.5,0.,1.59116830314465E-31));
#502=CARTESIAN_POINT('',(-35.5,-18.4323085911668,8.88178419700125E-15));
#503=CARTESIAN_POINT('Ctrl Pts',(-35.5,-18.4323085911668,2.63677968348475E-15));
#504=CARTESIAN_POINT('Ctrl Pts',(-34.7818703840603,-19.81540182877,0.439450142053172));
#505=CARTESIAN_POINT('Ctrl Pts',(-33.9869078783524,-21.1480967349544,0.907435378336744));
#506=CARTESIAN_POINT('Ctrl Pts',(-31.6721908884074,-24.5685575092024,2.19836922563114));
#507=CARTESIAN_POINT('Ctrl Pts',(-30.0298422901001,-26.5387002048237,3.04151636895393));
#508=CARTESIAN_POINT('Ctrl Pts',(-26.5489143198278,-30.019628175096,4.63330194788499));
#509=CARTESIAN_POINT('Ctrl Pts',(-24.5840270600931,-31.660322956161,5.44234931521402));
#510=CARTESIAN_POINT('Ctrl Pts',(-20.2818075344126,-34.5745386058477,6.94549081823392));
#511=CARTESIAN_POINT('Ctrl Pts',(-17.9442684983147,-35.8482706244572,7.63858359796795));
#512=CARTESIAN_POINT('Ctrl Pts',(-13.032446711869,-37.9110888818946,8.78732708137462));
#513=CARTESIAN_POINT('Ctrl Pts',(-10.45320426351,-38.7018408841425,9.2433680281837));
#514=CARTESIAN_POINT('Ctrl Pts',(-5.22667879707991,-39.7464941345577,9.84988348583725));
#515=CARTESIAN_POINT('Ctrl Pts',(-2.57927522212665,-40.,10.));
#516=CARTESIAN_POINT('Ctrl Pts',(2.57927522212664,-40.,10.));
#517=CARTESIAN_POINT('Ctrl Pts',(5.22667879707989,-39.7464941345577,9.84988348583725));
#518=CARTESIAN_POINT('Ctrl Pts',(10.45320426351,-38.7018408841425,9.24336802818371));
#519=CARTESIAN_POINT('Ctrl Pts',(13.0324467118689,-37.9110888818946,8.78732708137462));
#520=CARTESIAN_POINT('Ctrl Pts',(17.9442684983147,-35.8482706244572,7.63858359796795));
#521=CARTESIAN_POINT('Ctrl Pts',(20.2818075344126,-34.5745386058477,6.94549081823393));
#522=CARTESIAN_POINT('Ctrl Pts',(24.5840270600931,-31.6603229561611,5.44234931521402));
#523=CARTESIAN_POINT('Ctrl Pts',(26.5489143198278,-30.019628175096,4.63330194788499));
#524=CARTESIAN_POINT('Ctrl Pts',(30.0298422901001,-26.5387002048237,3.04151636895392));
#525=CARTESIAN_POINT('Ctrl Pts',(31.6721908884074,-24.5685575092024,2.19836922563114));
#526=CARTESIAN_POINT('Ctrl Pts',(33.9869078783524,-21.1480967349544,0.90743537833674));
#527=CARTESIAN_POINT('Ctrl Pts',(34.7818703840603,-19.81540182877,0.439450142053165));
#528=CARTESIAN_POINT('Ctrl Pts',(35.5,-18.4323085911667,-9.57567358739198E-15));
#529=CARTESIAN_POINT('',(-35.5,0.,-1.59116830314465E-31));
#530=CARTESIAN_POINT('',(35.0000005215406,0.,0.303022116689949));
#531=CARTESIAN_POINT('',(-35.0000005215406,-4.28626386088604E-15,0.303022116689949));
#532=CARTESIAN_POINT('Ctrl Pts',(35.0000005215406,-1.11022302462516E-15,
0.30302211668995));
#533=CARTESIAN_POINT('Ctrl Pts',(35.0000005215406,-2.2488800970798,0.30302211668995));
#534=CARTESIAN_POINT('Ctrl Pts',(34.7798644233128,-4.55645111170184,0.436944505201177));
#535=CARTESIAN_POINT('Ctrl Pts',(33.8721728420575,-9.11461049102665,0.967602050655953));
#536=CARTESIAN_POINT('Ctrl Pts',(33.1850043392383,-11.3653845432476,1.36340365154262));
#537=CARTESIAN_POINT('Ctrl Pts',(31.3879836947018,-15.659222066351,2.33264646655803));
#538=CARTESIAN_POINT('Ctrl Pts',(30.2766980826658,-17.7064961095156,2.9055868630048));
#539=CARTESIAN_POINT('Ctrl Pts',(27.7236607257879,-21.4848106321842,4.10907748589784));
#540=CARTESIAN_POINT('Ctrl Pts',(26.2815270783732,-23.215948342255,4.73851201672323));
#541=CARTESIAN_POINT('Ctrl Pts',(23.2207175750972,-26.276757845531,5.93427180558759));
#542=CARTESIAN_POINT('Ctrl Pts',(21.4919565085282,-27.7181967960848,6.54514954565194));
#543=CARTESIAN_POINT('Ctrl Pts',(17.7127130047582,-30.2731304381265,7.68266045610577));
#544=CARTESIAN_POINT('Ctrl Pts',(15.6621072827015,-31.3868227115371,8.20844007170211));
#545=CARTESIAN_POINT('Ctrl Pts',(11.3612496633572,-33.1866883080545,9.08024566373131));
#546=CARTESIAN_POINT('Ctrl Pts',(9.10685928727598,-33.8743015137591,9.42647796379912));
#547=CARTESIAN_POINT('Ctrl Pts',(4.54722118746956,-34.7811151146508,9.88649420731467));
#548=CARTESIAN_POINT('Ctrl Pts',(2.2418827672178,-35.0000005215406,10.));
#549=CARTESIAN_POINT('Ctrl Pts',(-2.2418827672178,-35.0000005215406,10.));
#550=CARTESIAN_POINT('Ctrl Pts',(-4.54722118746956,-34.7811151146508,9.88649420731467));
#551=CARTESIAN_POINT('Ctrl Pts',(-9.10685928727599,-33.8743015137591,9.42647796379912));
#552=CARTESIAN_POINT('Ctrl Pts',(-11.3612496633572,-33.1866883080545,9.08024566373131));
#553=CARTESIAN_POINT('Ctrl Pts',(-15.6621072827015,-31.3868227115371,8.20844007170211));
#554=CARTESIAN_POINT('Ctrl Pts',(-17.7127130047582,-30.2731304381265,7.68266045610577));
#555=CARTESIAN_POINT('Ctrl Pts',(-21.4919565085282,-27.7181967960848,6.54514954565194));
#556=CARTESIAN_POINT('Ctrl Pts',(-23.2207175750972,-26.276757845531,5.93427180558759));
#557=CARTESIAN_POINT('Ctrl Pts',(-26.2815270783732,-23.215948342255,4.73851201672323));
#558=CARTESIAN_POINT('Ctrl Pts',(-27.7236607257879,-21.4848106321842,4.10907748589783));
#559=CARTESIAN_POINT('Ctrl Pts',(-30.2766980826658,-17.7064961095156,2.9055868630048));
#560=CARTESIAN_POINT('Ctrl Pts',(-31.3879836947018,-15.659222066351,2.33264646655803));
#561=CARTESIAN_POINT('Ctrl Pts',(-33.1850043392383,-11.3653845432476,1.36340365154263));
#562=CARTESIAN_POINT('Ctrl Pts',(-33.8721728420575,-9.11461049102666,0.967602050655956));
#563=CARTESIAN_POINT('Ctrl Pts',(-34.7798644233128,-4.55645111170185,0.436944505201178));
#564=CARTESIAN_POINT('Ctrl Pts',(-35.0000005215406,-2.2488800970798,0.303022116689952));
#565=CARTESIAN_POINT('Ctrl Pts',(-35.0000005215406,0.,0.303022116689951));
#566=CARTESIAN_POINT('Ctrl Pts',(-35.0000005215406,5.55111512312578E-16,
0.303022116689951));
#567=CARTESIAN_POINT('Ctrl Pts',(-35.0000005215406,2.2488800970798,0.303022116689951));
#568=CARTESIAN_POINT('Ctrl Pts',(-34.7798644233128,4.55645111170185,0.436944505201178));
#569=CARTESIAN_POINT('Ctrl Pts',(-33.8721728420575,9.11461049102666,0.967602050655956));
#570=CARTESIAN_POINT('Ctrl Pts',(-33.1850043392383,11.3653845432476,1.36340365154262));
#571=CARTESIAN_POINT('Ctrl Pts',(-31.3879836947018,15.659222066351,2.33264646655803));
#572=CARTESIAN_POINT('Ctrl Pts',(-30.2766980826658,17.7064961095156,2.9055868630048));
#573=CARTESIAN_POINT('Ctrl Pts',(-27.7236607257879,21.4848106321842,4.10907748589783));
#574=CARTESIAN_POINT('Ctrl Pts',(-26.2815270783732,23.215948342255,4.73851201672322));
#575=CARTESIAN_POINT('Ctrl Pts',(-23.2207175750972,26.276757845531,5.93427180558758));
#576=CARTESIAN_POINT('Ctrl Pts',(-21.4919565085282,27.7181967960848,6.54514954565194));
#577=CARTESIAN_POINT('Ctrl Pts',(-17.7127130047582,30.2731304381265,7.68266045610577));
#578=CARTESIAN_POINT('Ctrl Pts',(-15.6621072827015,31.3868227115371,8.20844007170211));
#579=CARTESIAN_POINT('Ctrl Pts',(-11.3612496633572,33.1866883080545,9.08024566373131));
#580=CARTESIAN_POINT('Ctrl Pts',(-9.106859287276,33.8743015137591,9.42647796379912));
#581=CARTESIAN_POINT('Ctrl Pts',(-4.54722118746957,34.7811151146508,9.88649420731467));
#582=CARTESIAN_POINT('Ctrl Pts',(-2.24188276721781,35.0000005215406,10.));
#583=CARTESIAN_POINT('Ctrl Pts',(2.24188276721779,35.0000005215406,10.));
#584=CARTESIAN_POINT('Ctrl Pts',(4.54722118746955,34.7811151146508,9.88649420731467));
#585=CARTESIAN_POINT('Ctrl Pts',(9.10685928727598,33.8743015137592,9.42647796379912));
#586=CARTESIAN_POINT('Ctrl Pts',(11.3612496633572,33.1866883080545,9.08024566373131));
#587=CARTESIAN_POINT('Ctrl Pts',(15.6621072827015,31.3868227115371,8.20844007170211));
#588=CARTESIAN_POINT('Ctrl Pts',(17.7127130047582,30.2731304381265,7.68266045610577));
#589=CARTESIAN_POINT('Ctrl Pts',(21.4919565085282,27.7181967960848,6.54514954565194));
#590=CARTESIAN_POINT('Ctrl Pts',(23.2207175750972,26.276757845531,5.93427180558759));
#591=CARTESIAN_POINT('Ctrl Pts',(26.2815270783732,23.215948342255,4.73851201672322));
#592=CARTESIAN_POINT('Ctrl Pts',(27.7236607257879,21.4848106321842,4.10907748589783));
#593=CARTESIAN_POINT('Ctrl Pts',(30.2766980826658,17.7064961095156,2.9055868630048));
#594=CARTESIAN_POINT('Ctrl Pts',(31.3879836947018,15.659222066351,2.33264646655803));
#595=CARTESIAN_POINT('Ctrl Pts',(33.1850043392383,11.3653845432476,1.36340365154263));
#596=CARTESIAN_POINT('Ctrl Pts',(33.8721728420575,9.11461049102665,0.967602050655958));
#597=CARTESIAN_POINT('Ctrl Pts',(34.7798644233128,4.55645111170184,0.436944505201182));
#598=CARTESIAN_POINT('Ctrl Pts',(35.0000005215406,2.2488800970798,0.303022116689951));
#599=CARTESIAN_POINT('Ctrl Pts',(35.0000005215406,5.55111512312578E-16,
0.303022116689951));
#600=CARTESIAN_POINT('Origin',(1.42795225357335E-15,0.,24.));
#601=CARTESIAN_POINT('',(-5.0000000745058,-39.686269656582,24.));
#602=CARTESIAN_POINT('Ctrl Pts',(-5.0000000745058,-39.686269656582,24.));
#603=CARTESIAN_POINT('Ctrl Pts',(-5.0000000745058,-39.686269656582,24.6285201058125));
#604=CARTESIAN_POINT('Ctrl Pts',(-4.8742554215349,-39.7027412158616,25.2984801422807));
#605=CARTESIAN_POINT('Ctrl Pts',(-4.36378380379726,-39.7620851620474,26.5301794471131));
#606=CARTESIAN_POINT('Ctrl Pts',(-3.97909249849902,-39.8040841652398,27.0919754187336));
#607=CARTESIAN_POINT('Ctrl Pts',(-3.09197912425992,-39.8828027491442,27.9790887929727));
#608=CARTESIAN_POINT('Ctrl Pts',(-2.53018154169286,-39.9246581226805,28.3637830013409));
#609=CARTESIAN_POINT('Ctrl Pts',(-1.2984767821721,-39.9836729538668,28.8742567484833));
#610=CARTESIAN_POINT('Ctrl Pts',(-0.6285148551013,-40.,29.0000000745058));
#611=CARTESIAN_POINT('Ctrl Pts',(0.628514855101301,-40.,29.0000000745058));
#612=CARTESIAN_POINT('Ctrl Pts',(1.2984767821721,-39.9836729538668,28.8742567484833));
#613=CARTESIAN_POINT('Ctrl Pts',(2.53018154169286,-39.9246581226805,28.3637830013409));
#614=CARTESIAN_POINT('Ctrl Pts',(3.09197912425992,-39.8828027491442,27.9790887929727));
#615=CARTESIAN_POINT('Ctrl Pts',(3.97909249849902,-39.8040841652398,27.0919754187336));
#616=CARTESIAN_POINT('Ctrl Pts',(4.36378380379727,-39.7620851620474,26.5301794471131));
#617=CARTESIAN_POINT('Ctrl Pts',(4.8742554215349,-39.7027412158616,25.2984801422807));
#618=CARTESIAN_POINT('Ctrl Pts',(5.00000007450581,-39.686269656582,24.6285201058125));
#619=CARTESIAN_POINT('Ctrl Pts',(5.00000007450581,-39.686269656582,23.3714798941875));
#620=CARTESIAN_POINT('Ctrl Pts',(4.8742554215349,-39.7027412158616,22.7015198577194));
#621=CARTESIAN_POINT('Ctrl Pts',(4.36378380379726,-39.7620851620474,21.4698205528869));
#622=CARTESIAN_POINT('Ctrl Pts',(3.97909249849902,-39.8040841652398,20.9080245812664));
#623=CARTESIAN_POINT('Ctrl Pts',(3.09197912425992,-39.8828027491442,20.0209112070273));
#624=CARTESIAN_POINT('Ctrl Pts',(2.53018154169286,-39.9246581226805,19.6362169986592));
#625=CARTESIAN_POINT('Ctrl Pts',(1.2984767821721,-39.9836729538668,19.1257432515167));
#626=CARTESIAN_POINT('Ctrl Pts',(0.628514855101303,-40.,18.9999999254942));
#627=CARTESIAN_POINT('Ctrl Pts',(-0.628514855101296,-40.,18.9999999254942));
#628=CARTESIAN_POINT('Ctrl Pts',(-1.29847678217209,-39.9836729538668,19.1257432515167));
#629=CARTESIAN_POINT('Ctrl Pts',(-2.53018154169286,-39.9246581226805,19.6362169986592));
#630=CARTESIAN_POINT('Ctrl Pts',(-3.09197912425992,-39.8828027491442,20.0209112070273));
#631=CARTESIAN_POINT('Ctrl Pts',(-3.97909249849901,-39.8040841652398,20.9080245812664));
#632=CARTESIAN_POINT('Ctrl Pts',(-4.36378380379726,-39.7620851620474,21.4698205528869));
#633=CARTESIAN_POINT('Ctrl Pts',(-4.8742554215349,-39.7027412158616,22.7015198577193));
#634=CARTESIAN_POINT('Ctrl Pts',(-5.0000000745058,-39.686269656582,23.3714798941875));
#635=CARTESIAN_POINT('Ctrl Pts',(-5.0000000745058,-39.686269656582,24.));
#636=CARTESIAN_POINT('',(-5.00000007450581,-34.6410166675689,24.));
#637=CARTESIAN_POINT('',(-5.00000007450581,0.,24.));
#638=CARTESIAN_POINT('Ctrl Pts',(-5.00000007450581,-34.6410166675689,24.));
#639=CARTESIAN_POINT('Ctrl Pts',(-5.00000007450581,-34.6410166675689,23.3712596480249));
#640=CARTESIAN_POINT('Ctrl Pts',(-4.87416979211775,-34.6599022177372,22.7012071902853));
#641=CARTESIAN_POINT('Ctrl Pts',(-4.3636361080279,-34.7278711157732,21.4695702866081));
#642=CARTESIAN_POINT('Ctrl Pts',(-3.97897909429467,-34.7759461800374,20.9079111770621));
#643=CARTESIAN_POINT('Ctrl Pts',(-3.09209517142198,-34.8659955990381,20.0210272541894));
#644=CARTESIAN_POINT('Ctrl Pts',(-2.53043331674194,-34.9138557040344,19.6363652614653));
#645=CARTESIAN_POINT('Ctrl Pts',(-1.29878705835386,-34.981331664985,19.1258279480035));
#646=CARTESIAN_POINT('Ctrl Pts',(-0.628731350753171,-35.0000005215406,18.9999999254942));
#647=CARTESIAN_POINT('Ctrl Pts',(0.628731350753174,-35.0000005215406,18.9999999254942));
#648=CARTESIAN_POINT('Ctrl Pts',(1.29878705835386,-34.981331664985,19.1258279480035));
#649=CARTESIAN_POINT('Ctrl Pts',(2.53043331674194,-34.9138557040344,19.6363652614653));
#650=CARTESIAN_POINT('Ctrl Pts',(3.09209517142199,-34.8659955990381,20.0210272541894));
#651=CARTESIAN_POINT('Ctrl Pts',(3.97897909429468,-34.7759461800374,20.9079111770621));
#652=CARTESIAN_POINT('Ctrl Pts',(4.36363610802791,-34.7278711157732,21.4695702866081));
#653=CARTESIAN_POINT('Ctrl Pts',(4.87416979211775,-34.6599022177372,22.7012071902853));
#654=CARTESIAN_POINT('Ctrl Pts',(5.00000007450581,-34.6410166675689,23.3712596480249));
#655=CARTESIAN_POINT('Ctrl Pts',(5.00000007450581,-34.6410166675689,24.6287403519752));
#656=CARTESIAN_POINT('Ctrl Pts',(4.87416979211775,-34.6599022177372,25.2987928097147));
#657=CARTESIAN_POINT('Ctrl Pts',(4.36363610802791,-34.7278711157732,26.5304297133919));
#658=CARTESIAN_POINT('Ctrl Pts',(3.97897909429468,-34.7759461800374,27.0920888229379));
#659=CARTESIAN_POINT('Ctrl Pts',(3.09209517142199,-34.8659955990381,27.9789727458106));
#660=CARTESIAN_POINT('Ctrl Pts',(2.53043331674194,-34.9138557040344,28.3636347385347));
#661=CARTESIAN_POINT('Ctrl Pts',(1.29878705835386,-34.981331664985,28.8741720519965));
#662=CARTESIAN_POINT('Ctrl Pts',(0.628731350753174,-35.0000005215406,29.0000000745058));
#663=CARTESIAN_POINT('Ctrl Pts',(-0.62873135075317,-35.0000005215406,29.0000000745058));
#664=CARTESIAN_POINT('Ctrl Pts',(-1.29878705835386,-34.981331664985,28.8741720519965));
#665=CARTESIAN_POINT('Ctrl Pts',(-2.53043331674193,-34.9138557040344,28.3636347385347));
#666=CARTESIAN_POINT('Ctrl Pts',(-3.09209517142198,-34.8659955990381,27.9789727458106));
#667=CARTESIAN_POINT('Ctrl Pts',(-3.97897909429467,-34.7759461800374,27.0920888229379));
#668=CARTESIAN_POINT('Ctrl Pts',(-4.3636361080279,-34.7278711157732,26.5304297133919));
#669=CARTESIAN_POINT('Ctrl Pts',(-4.87416979211775,-34.6599022177372,25.2987928097147));
#670=CARTESIAN_POINT('Ctrl Pts',(-5.0000000745058,-34.6410166675689,24.6287403519752));
#671=CARTESIAN_POINT('Ctrl Pts',(-5.0000000745058,-34.6410166675689,24.));
#672=CARTESIAN_POINT('Origin',(1.42795225357335E-15,0.,24.));
#673=CARTESIAN_POINT('',(-5.0000000745058,34.6410166675689,24.));
#674=CARTESIAN_POINT('Ctrl Pts',(-5.0000000745058,34.6410166675689,24.));
#675=CARTESIAN_POINT('Ctrl Pts',(-5.0000000745058,34.6410166675689,24.6287403519752));
#676=CARTESIAN_POINT('Ctrl Pts',(-4.87416979211775,34.6599022177372,25.2987928097147));
#677=CARTESIAN_POINT('Ctrl Pts',(-4.3636361080279,34.7278711157732,26.5304297133919));
#678=CARTESIAN_POINT('Ctrl Pts',(-3.97897909429467,34.7759461800374,27.0920888229379));
#679=CARTESIAN_POINT('Ctrl Pts',(-3.09209517142198,34.8659955990381,27.9789727458106));
#680=CARTESIAN_POINT('Ctrl Pts',(-2.53043331674194,34.9138557040344,28.3636347385347));
#681=CARTESIAN_POINT('Ctrl Pts',(-1.29878705835386,34.981331664985,28.8741720519965));
#682=CARTESIAN_POINT('Ctrl Pts',(-0.628731350753171,35.0000005215406,29.0000000745058));
#683=CARTESIAN_POINT('Ctrl Pts',(0.628731350753174,35.0000005215406,29.0000000745058));
#684=CARTESIAN_POINT('Ctrl Pts',(1.29878705835386,34.981331664985,28.8741720519965));
#685=CARTESIAN_POINT('Ctrl Pts',(2.53043331674194,34.9138557040344,28.3636347385347));
#686=CARTESIAN_POINT('Ctrl Pts',(3.09209517142199,34.8659955990381,27.9789727458106));
#687=CARTESIAN_POINT('Ctrl Pts',(3.97897909429468,34.7759461800374,27.0920888229379));
#688=CARTESIAN_POINT('Ctrl Pts',(4.36363610802791,34.7278711157732,26.5304297133919));
#689=CARTESIAN_POINT('Ctrl Pts',(4.87416979211775,34.6599022177372,25.2987928097147));
#690=CARTESIAN_POINT('Ctrl Pts',(5.00000007450581,34.6410166675689,24.6287403519752));
#691=CARTESIAN_POINT('Ctrl Pts',(5.00000007450581,34.6410166675689,23.3712596480249));
#692=CARTESIAN_POINT('Ctrl Pts',(4.87416979211775,34.6599022177372,22.7012071902853));
#693=CARTESIAN_POINT('Ctrl Pts',(4.36363610802791,34.7278711157732,21.4695702866081));
#694=CARTESIAN_POINT('Ctrl Pts',(3.97897909429468,34.7759461800374,20.9079111770621));
#695=CARTESIAN_POINT('Ctrl Pts',(3.09209517142199,34.8659955990381,20.0210272541894));
#696=CARTESIAN_POINT('Ctrl Pts',(2.53043331674194,34.9138557040344,19.6363652614653));
#697=CARTESIAN_POINT('Ctrl Pts',(1.29878705835386,34.981331664985,19.1258279480035));
#698=CARTESIAN_POINT('Ctrl Pts',(0.628731350753174,35.0000005215406,18.9999999254942));
#699=CARTESIAN_POINT('Ctrl Pts',(-0.62873135075317,35.0000005215406,18.9999999254942));
#700=CARTESIAN_POINT('Ctrl Pts',(-1.29878705835386,34.981331664985,19.1258279480035));
#701=CARTESIAN_POINT('Ctrl Pts',(-2.53043331674194,34.9138557040344,19.6363652614653));
#702=CARTESIAN_POINT('Ctrl Pts',(-3.09209517142198,34.8659955990381,20.0210272541894));
#703=CARTESIAN_POINT('Ctrl Pts',(-3.97897909429467,34.7759461800374,20.9079111770621));
#704=CARTESIAN_POINT('Ctrl Pts',(-4.3636361080279,34.7278711157732,21.4695702866081));
#705=CARTESIAN_POINT('Ctrl Pts',(-4.87416979211775,34.6599022177372,22.7012071902853));
#706=CARTESIAN_POINT('Ctrl Pts',(-5.0000000745058,34.6410166675689,23.3712596480248));
#707=CARTESIAN_POINT('Ctrl Pts',(-5.0000000745058,34.6410166675689,24.));
#708=CARTESIAN_POINT('',(-5.00000007450581,39.686269656582,24.));
#709=CARTESIAN_POINT('',(-5.00000007450581,0.,24.));
#710=CARTESIAN_POINT('Ctrl Pts',(-5.00000007450581,39.686269656582,24.));
#711=CARTESIAN_POINT('Ctrl Pts',(-5.00000007450581,39.686269656582,23.3714798941875));
#712=CARTESIAN_POINT('Ctrl Pts',(-4.8742554215349,39.7027412158616,22.7015198577193));
#713=CARTESIAN_POINT('Ctrl Pts',(-4.36378380379726,39.7620851620474,21.4698205528869));
#714=CARTESIAN_POINT('Ctrl Pts',(-3.97909249849901,39.8040841652398,20.9080245812664));
#715=CARTESIAN_POINT('Ctrl Pts',(-3.09197912425992,39.8828027491442,20.0209112070273));
#716=CARTESIAN_POINT('Ctrl Pts',(-2.53018154169286,39.9246581226805,19.6362169986592));
#717=CARTESIAN_POINT('Ctrl Pts',(-1.29847678217209,39.9836729538668,19.1257432515167));
#718=CARTESIAN_POINT('Ctrl Pts',(-0.628514855101296,40.,18.9999999254942));
#719=CARTESIAN_POINT('Ctrl Pts',(0.628514855101303,40.,18.9999999254942));
#720=CARTESIAN_POINT('Ctrl Pts',(1.2984767821721,39.9836729538668,19.1257432515167));
#721=CARTESIAN_POINT('Ctrl Pts',(2.53018154169286,39.9246581226805,19.6362169986592));
#722=CARTESIAN_POINT('Ctrl Pts',(3.09197912425992,39.8828027491442,20.0209112070273));
#723=CARTESIAN_POINT('Ctrl Pts',(3.97909249849902,39.8040841652398,20.9080245812664));
#724=CARTESIAN_POINT('Ctrl Pts',(4.36378380379726,39.7620851620474,21.4698205528869));
#725=CARTESIAN_POINT('Ctrl Pts',(4.8742554215349,39.7027412158616,22.7015198577193));
#726=CARTESIAN_POINT('Ctrl Pts',(5.00000007450581,39.686269656582,23.3714798941875));
#727=CARTESIAN_POINT('Ctrl Pts',(5.00000007450581,39.686269656582,24.6285201058125));
#728=CARTESIAN_POINT('Ctrl Pts',(4.8742554215349,39.7027412158616,25.2984801422807));
#729=CARTESIAN_POINT('Ctrl Pts',(4.36378380379727,39.7620851620474,26.5301794471131));
#730=CARTESIAN_POINT('Ctrl Pts',(3.97909249849902,39.8040841652398,27.0919754187336));
#731=CARTESIAN_POINT('Ctrl Pts',(3.09197912425992,39.8828027491442,27.9790887929727));
#732=CARTESIAN_POINT('Ctrl Pts',(2.53018154169286,39.9246581226805,28.3637830013409));
#733=CARTESIAN_POINT('Ctrl Pts',(1.29847678217209,39.9836729538668,28.8742567484833));
#734=CARTESIAN_POINT('Ctrl Pts',(0.6285148551013,40.,29.0000000745058));
#735=CARTESIAN_POINT('Ctrl Pts',(-0.628514855101299,40.,29.0000000745058));
#736=CARTESIAN_POINT('Ctrl Pts',(-1.29847678217209,39.9836729538668,28.8742567484833));
#737=CARTESIAN_POINT('Ctrl Pts',(-2.53018154169286,39.9246581226805,28.3637830013409));
#738=CARTESIAN_POINT('Ctrl Pts',(-3.09197912425992,39.8828027491442,27.9790887929727));
#739=CARTESIAN_POINT('Ctrl Pts',(-3.97909249849902,39.8040841652398,27.0919754187336));
#740=CARTESIAN_POINT('Ctrl Pts',(-4.36378380379726,39.7620851620474,26.5301794471131));
#741=CARTESIAN_POINT('Ctrl Pts',(-4.8742554215349,39.7027412158616,25.2984801422807));
#742=CARTESIAN_POINT('Ctrl Pts',(-5.0000000745058,39.686269656582,24.6285201058125));
#743=CARTESIAN_POINT('Ctrl Pts',(-5.0000000745058,39.686269656582,24.));
#744=CARTESIAN_POINT('Origin',(40.,0.,9.24446373305873E-32));
#745=CARTESIAN_POINT('',(-40.,-4.89858719658941E-15,-8.88178419700125E-15));
#746=CARTESIAN_POINT('Origin',(0.,0.,0.));
#747=CARTESIAN_POINT('Origin',(0.,0.,0.));
#748=CARTESIAN_POINT('Origin',(-8.06789562157853E-32,0.,18.));
#749=CARTESIAN_POINT('',(-40.,-4.89858719658941E-15,36.));
#750=CARTESIAN_POINT('Origin',(-1.61357912431571E-31,0.,36.));
#751=CARTESIAN_POINT('',(-40.,-4.89858719658941E-15,18.));
#752=CARTESIAN_POINT('Origin',(0.,0.,0.));
#753=CARTESIAN_POINT('Origin',(0.,0.,-8.68419320378245E-32));
#754=CARTESIAN_POINT('',(-35.0000005215406,4.28626386088604E-15,50.));
#755=CARTESIAN_POINT('',(-35.0000005215406,-4.28626386088604E-15,-8.68419320378245E-32));
#756=CARTESIAN_POINT('Origin',(0.,0.,50.));
#757=CARTESIAN_POINT('Origin',(0.,0.,50.));
#758=CARTESIAN_POINT('Origin',(-2.24108211710515E-31,0.,50.));
#759=CARTESIAN_POINT('',(-35.,-4.28626379701574E-15,55.));
#760=CARTESIAN_POINT('Origin',(-2.46519032881566E-31,0.,55.));
#761=CARTESIAN_POINT('',(-40.,-4.89858719658941E-15,50.));
#762=CARTESIAN_POINT('Origin',(-35.,-4.28626379701574E-15,50.));
#763=CARTESIAN_POINT('Origin',(-2.24108211710515E-31,0.,50.));
#764=CARTESIAN_POINT('Origin',(-2.3083145806183E-31,0.,51.5));
#765=CARTESIAN_POINT('',(-40.,-4.89858719658941E-15,48.));
#766=CARTESIAN_POINT('',(-40.,-4.89858719658941E-15,51.5));
#767=CARTESIAN_POINT('Origin',(-2.15143883242094E-31,0.,48.));
#768=CARTESIAN_POINT('Origin',(0.,0.,55.));
#769=CARTESIAN_POINT('Origin',(-1.79286569368412E-31,0.,40.));
#770=CARTESIAN_POINT('',(-40.,-4.89858719658941E-15,42.));
#771=CARTESIAN_POINT('Origin',(-1.88250897836832E-31,0.,42.));
#772=CARTESIAN_POINT('',(-40.,-4.89858719658941E-15,38.));
#773=CARTESIAN_POINT('',(-40.,-4.89858719658941E-15,40.));
#774=CARTESIAN_POINT('Origin',(-1.70322240899991E-31,0.,38.));
#775=CARTESIAN_POINT('Origin',(36.,0.,42.));
#776=CARTESIAN_POINT('',(-36.,-4.40872847693047E-15,42.));
#777=CARTESIAN_POINT('Origin',(-1.88250897836832E-31,0.,42.));
#778=CARTESIAN_POINT('Origin',(-1.92733062071043E-31,0.,43.));
#779=CARTESIAN_POINT('',(-36.,-4.40872847693047E-15,44.));
#780=CARTESIAN_POINT('Origin',(-1.97215226305253E-31,0.,44.));
#781=CARTESIAN_POINT('',(-36.,-4.40872847693047E-15,43.));
#782=CARTESIAN_POINT('Origin',(40.,0.,44.));
#783=CARTESIAN_POINT('',(-40.,-4.89858719658941E-15,44.));
#784=CARTESIAN_POINT('Origin',(-1.97215226305253E-31,0.,44.));
#785=CARTESIAN_POINT('Origin',(-2.01697390539463E-31,0.,45.));
#786=CARTESIAN_POINT('',(-40.,-4.89858719658941E-15,46.));
#787=CARTESIAN_POINT('Origin',(-2.06179554773674E-31,0.,46.));
#788=CARTESIAN_POINT('',(-40.,-4.89858719658941E-15,45.));
#789=CARTESIAN_POINT('Origin',(36.,0.,46.));
#790=CARTESIAN_POINT('',(-36.,-4.40872847693047E-15,46.));
#791=CARTESIAN_POINT('Origin',(-2.06179554773674E-31,0.,46.));
#792=CARTESIAN_POINT('Origin',(-2.10661719007884E-31,0.,47.));
#793=CARTESIAN_POINT('',(-36.,-4.40872847693047E-15,48.));
#794=CARTESIAN_POINT('Origin',(-2.15143883242094E-31,0.,48.));
#795=CARTESIAN_POINT('',(-36.,-4.40872847693047E-15,47.));
#796=CARTESIAN_POINT('Origin',(40.,0.,48.));
#797=CARTESIAN_POINT('Origin',(40.,0.,9.24446373305873E-32));
#798=CARTESIAN_POINT('Origin',(36.,0.,36.));
#799=CARTESIAN_POINT('',(-36.,-4.40872847693047E-15,36.));
#800=CARTESIAN_POINT('Origin',(-1.61357912431571E-31,0.,36.));
#801=CARTESIAN_POINT('Origin',(-1.65840076665781E-31,0.,37.));
#802=CARTESIAN_POINT('',(-36.,-4.40872847693047E-15,38.));
#803=CARTESIAN_POINT('Origin',(-1.70322240899991E-31,0.,38.));
#804=CARTESIAN_POINT('',(-36.,-4.40872847693047E-15,37.));
#805=CARTESIAN_POINT('Origin',(40.,0.,38.));
#806=UNCERTAINTY_MEASURE_WITH_UNIT(LENGTH_MEASURE(0.01),#810,
'DISTANCE_ACCURACY_VALUE',
'Maximum model space distance between geometric entities at asserted c
onnectivities');
#807=UNCERTAINTY_MEASURE_WITH_UNIT(LENGTH_MEASURE(0.01),#810,
'DISTANCE_ACCURACY_VALUE',
'Maximum model space distance between geometric entities at asserted c
onnectivities');
#808=(
GEOMETRIC_REPRESENTATION_CONTEXT(3)
GLOBAL_UNCERTAINTY_ASSIGNED_CONTEXT((#806))
GLOBAL_UNIT_ASSIGNED_CONTEXT((#810,#812,#813))
REPRESENTATION_CONTEXT('','3D')
);
#809=(
GEOMETRIC_REPRESENTATION_CONTEXT(3)
GLOBAL_UNCERTAINTY_ASSIGNED_CONTEXT((#807))
GLOBAL_UNIT_ASSIGNED_CONTEXT((#810,#812,#813))
REPRESENTATION_CONTEXT('','3D')
);
#810=(
LENGTH_UNIT()
NAMED_UNIT(*)
SI_UNIT(.MILLI.,.METRE.)
);
#811=(
LENGTH_UNIT()
NAMED_UNIT(*)
SI_UNIT($,.METRE.)
);
#812=(
NAMED_UNIT(*)
PLANE_ANGLE_UNIT()
SI_UNIT($,.RADIAN.)
);
#813=(
NAMED_UNIT(*)
SI_UNIT($,.STERADIAN.)
SOLID_ANGLE_UNIT()
);
#814=SHAPE_DEFINITION_REPRESENTATION(#815,#816);
#815=PRODUCT_DEFINITION_SHAPE('',$,#818);
#816=SHAPE_REPRESENTATION('',(#332),#808);
#817=PRODUCT_DEFINITION_CONTEXT('part definition',#822,'design');
#818=PRODUCT_DEFINITION('Piston','Piston',#819,#817);
#819=PRODUCT_DEFINITION_FORMATION('',$,#824);
#820=PRODUCT_RELATED_PRODUCT_CATEGORY('Piston','Piston',(#824));
#821=APPLICATION_PROTOCOL_DEFINITION('international standard',
'automotive_design',2009,#822);
#822=APPLICATION_CONTEXT(
'Core Data for Automotive Mechanical Design Process');
#823=PRODUCT_CONTEXT('part definition',#822,'mechanical');
#824=PRODUCT('Piston','Piston',$,(#823));
#825=PRESENTATION_STYLE_ASSIGNMENT((#826));
#826=SURFACE_STYLE_USAGE(.BOTH.,#827);
#827=SURFACE_SIDE_STYLE('',(#828));
#828=SURFACE_STYLE_FILL_AREA(#829);
#829=FILL_AREA_STYLE('Steel - Satin',(#830));
#830=FILL_AREA_STYLE_COLOUR('Steel - Satin',#831);
#831=COLOUR_RGB('Steel - Satin',0.627450980392157,0.627450980392157,0.627450980392157);
ENDSEC;
END-ISO-10303-21;
